<svg width="36" height="36" viewBox="0 0 36 36" fill="none" xmlns="http://www.w3.org/2000/svg">
<path fill-rule="evenodd" clip-rule="evenodd" d="M34.6165 18.3969C34.6165 17.1586 34.5054 15.968 34.299 14.825H17.8521V21.5799H27.2503C26.8455 23.7628 25.6151 25.6123 23.7656 26.8506V31.2322H29.4094C32.7114 28.1921 34.6165 23.7152 34.6165 18.3969Z" fill="#4285F4"/>
<path fill-rule="evenodd" clip-rule="evenodd" d="M17.8516 35.4627C22.5666 35.4627 26.5196 33.899 29.4089 31.2319L23.7652 26.8503C22.2015 27.898 20.2012 28.5172 17.8516 28.5172C13.3033 28.5172 9.45353 25.4453 8.08031 21.3177H2.24609V25.8422C5.11954 31.5494 11.0252 35.4627 17.8516 35.4627Z" fill="#34A853"/>
<path fill-rule="evenodd" clip-rule="evenodd" d="M8.0808 21.318C7.73154 20.2702 7.5331 19.151 7.5331 18.0001C7.5331 16.8491 7.73154 15.7299 8.0808 14.6821V10.1576H2.24658C1.06387 12.5151 0.38916 15.1822 0.38916 18.0001C0.38916 20.8179 1.06387 23.485 2.24658 25.8425L8.0808 21.318Z" fill="#FBBC05"/>
<path fill-rule="evenodd" clip-rule="evenodd" d="M17.8516 7.48254C20.4155 7.48254 22.7174 8.36363 24.5272 10.0941L29.5359 5.08536C26.5117 2.26747 22.5587 0.537048 17.8516 0.537048C11.0252 0.537048 5.11954 4.45034 2.24609 10.1576L8.08031 14.682C9.45353 10.5544 13.3033 7.48254 17.8516 7.48254Z" fill="#EA4335"/>
</svg>
